<?xml version="1.0" ?><svg id="Layer_1_1_" style="enable-background:new 0 0 64 64;" version="1.1" viewBox="0 0 64 64" xml:space="preserve" xmlns="http://www.w3.org/2000/svg" xmlns:xlink="http://www.w3.org/1999/xlink"><g/><path d="M34,39V25c0-0.334,0.167-0.646,0.445-0.832L40,20.465V14.48l-3-2.4V17  c0,0.379-0.214,0.725-0.553,0.895l-4,2c-0.281,0.141-0.613,0.141-0.895,0l-4-2C27.214,17.725,27,17.379,27,17v-4.919l-3,2.4v5.984  l5.555,3.703C29.833,24.354,30,24.666,30,25v14H34z" style="fill:#EAB83B;"/><path d="M25,58h-2c-1.304,0-2.416,0.836-2.829,2h23.658c-0.413-1.164-1.525-2-2.829-2h-2H25z" style="fill:#7BDEE8;"/><path d="M42,38.303V39h2c0-0.188,0.022-0.37,0.055-0.548c0.011-0.061,0.029-0.119,0.044-0.178  c0.029-0.113,0.062-0.224,0.103-0.331c0.027-0.07,0.055-0.138,0.086-0.206c0.041-0.086,0.087-0.168,0.136-0.25  c0.044-0.075,0.085-0.15,0.135-0.22c0.025-0.034,0.054-0.064,0.08-0.097c0.154-0.198,0.331-0.376,0.53-0.53  c0.012-0.01,0.023-0.02,0.036-0.03c0.11-0.083,0.226-0.155,0.347-0.222c0.019-0.01,0.037-0.021,0.056-0.03  c0.126-0.067,0.256-0.126,0.392-0.174V25h-1.586L42,27.414v4.283l1.832,2.748c0.224,0.336,0.224,0.773,0,1.109L42,38.303z" style="fill:#7BDEE8;"/><path d="M18,39v-6c0-0.265,0.105-0.52,0.293-0.707l1.584-1.584L18.246,25h-2.492l-1.631,5.709l1.584,1.584  C15.895,32.48,16,32.735,16,33v6H18z" style="fill:#7BDEE8;"/><path d="M47,38c-0.552,0-1,0.449-1,1h2C48,38.449,47.552,38,47,38z" style="fill:#7BDEE8;"/><path d="M20,12H4v27h10v-5.586l-1.707-1.707c-0.257-0.257-0.354-0.632-0.255-0.982l2-7  C14.161,23.296,14.554,23,15,23h4c0.446,0,0.839,0.296,0.962,0.725l2,7c0.1,0.35,0.002,0.725-0.255,0.982L20,33.414V39h8V25.535  l-5.555-3.703C22.167,21.646,22,21.334,22,21v-7c0-0.304,0.138-0.591,0.375-0.781l5-4c0.301-0.241,0.711-0.287,1.059-0.121  C28.779,9.265,29,9.616,29,10v6.382l3,1.5l3-1.5V10c0-0.384,0.221-0.735,0.566-0.901c0.345-0.167,0.758-0.12,1.059,0.121l5,4  C41.862,13.409,42,13.696,42,14v7c0,0.334-0.167,0.646-0.445,0.832L36,25.535V39h4v-1c0-0.197,0.059-0.391,0.168-0.555L41.798,35  l-1.63-2.445C40.059,32.391,40,32.197,40,32v-5c0-0.265,0.105-0.52,0.293-0.707l3-3C43.48,23.105,43.734,23,44,23h6  c0.266,0,0.52,0.105,0.707,0.293l3,3C53.895,26.48,54,26.735,54,27v5c0,0.197-0.059,0.391-0.168,0.555L52.202,35l1.63,2.445  C53.941,37.609,54,37.803,54,38v1h6V7c0-1.654-1.346-3-3-3H7C5.346,4,4,5.346,4,7v3h16V12z M9,8H7V6h2V8z M13,8h-2V6h2V8z M17,8h-2  V6h2V8z" style="fill:#D8D9D9;"/><path d="M52,39v-0.697l-1.832-2.748c-0.224-0.336-0.224-0.773,0-1.109L52,31.697v-4.283L49.586,25H48v11.184  c0.136,0.049,0.266,0.107,0.392,0.174c0.019,0.01,0.037,0.02,0.056,0.03c0.121,0.067,0.237,0.139,0.347,0.222  c0.013,0.009,0.024,0.02,0.036,0.03c0.198,0.154,0.375,0.331,0.53,0.53c0.026,0.033,0.056,0.063,0.08,0.097  c0.05,0.07,0.091,0.146,0.135,0.22c0.048,0.081,0.095,0.163,0.135,0.249c0.032,0.068,0.06,0.136,0.087,0.206  c0.041,0.107,0.074,0.218,0.103,0.331c0.015,0.06,0.032,0.117,0.044,0.178C49.978,38.63,50,38.812,50,39H52z" style="fill:#7BDEE8;"/><polygon points="26.281,56 37.719,56 36.219,50 27.781,50 " style="fill:#5AABAF;"/><path d="M4,45c0,1.654,1.346,3,3,3h20h10h20c1.654,0,3-1.346,3-3v-4H4V45z" style="fill:#7BDEE8;"/><path d="M57,2H7C4.243,2,2,4.243,2,7v38c0,2.757,2.243,5,5,5h18.72l-1.5,6H23c-2.757,0-5,2.243-5,5  c0,0.552,0.447,1,1,1h26c0.553,0,1-0.448,1-1c0-2.757-2.243-5-5-5h-1.22l-1.5-6H57c2.757,0,5-2.243,5-5V7C62,4.243,59.757,2,57,2z   M4,7c0-1.654,1.346-3,3-3h50c1.654,0,3,1.346,3,3v32h-6v-1c0-0.197-0.059-0.391-0.168-0.555L52.202,35l1.63-2.445  C53.941,32.391,54,32.197,54,32v-5c0-0.265-0.105-0.52-0.293-0.707l-3-3C50.52,23.105,50.266,23,50,23h-6  c-0.266,0-0.52,0.105-0.707,0.293l-3,3C40.105,26.48,40,26.735,40,27v5c0,0.197,0.059,0.391,0.168,0.555L41.798,35l-1.63,2.445  C40.059,37.609,40,37.803,40,38v1h-4V25.535l5.555-3.703C41.833,21.646,42,21.334,42,21v-7c0-0.304-0.138-0.591-0.375-0.781l-5-4  c-0.301-0.241-0.714-0.287-1.059-0.121C35.221,9.265,35,9.616,35,10v6.382l-3,1.5l-3-1.5V10c0-0.384-0.221-0.735-0.566-0.901  c-0.348-0.166-0.758-0.12-1.059,0.121l-5,4C22.138,13.409,22,13.696,22,14v7c0,0.334,0.167,0.646,0.445,0.832L28,25.535V39h-8  v-5.586l1.707-1.707c0.257-0.257,0.354-0.632,0.255-0.982l-2-7C19.839,23.296,19.446,23,19,23h-4c-0.446,0-0.839,0.296-0.962,0.725  l-2,7c-0.1,0.35-0.002,0.725,0.255,0.982L14,33.414V39H4V12h16v-2H4V7z M43.832,34.445L42,31.697v-4.283L44.414,25H46v11.184  c-0.136,0.049-0.265,0.107-0.392,0.174c-0.019,0.01-0.038,0.02-0.056,0.03c-0.121,0.067-0.237,0.139-0.347,0.222  c-0.012,0.009-0.024,0.02-0.036,0.03c-0.198,0.154-0.375,0.331-0.53,0.53c-0.026,0.033-0.056,0.063-0.08,0.097  c-0.05,0.07-0.091,0.145-0.135,0.22c-0.048,0.081-0.095,0.163-0.136,0.25c-0.032,0.067-0.06,0.136-0.086,0.206  c-0.041,0.108-0.075,0.218-0.103,0.331c-0.015,0.06-0.032,0.117-0.044,0.178C44.022,38.63,44,38.812,44,39h-2v-0.697l1.832-2.748  C44.056,35.219,44.056,34.781,43.832,34.445z M47,38c0.552,0,1,0.449,1,1h-2C46,38.449,46.448,38,47,38z M49.901,38.274  c-0.028-0.113-0.062-0.223-0.103-0.331c-0.027-0.07-0.055-0.139-0.087-0.206c-0.04-0.086-0.087-0.168-0.135-0.249  c-0.044-0.075-0.085-0.15-0.135-0.22c-0.024-0.034-0.055-0.064-0.08-0.097c-0.154-0.198-0.331-0.376-0.53-0.53  c-0.012-0.01-0.023-0.02-0.036-0.03c-0.11-0.083-0.226-0.155-0.347-0.222c-0.018-0.01-0.037-0.02-0.056-0.03  c-0.126-0.067-0.256-0.126-0.392-0.174V25h1.586L52,27.414v4.283l-1.832,2.748c-0.224,0.336-0.224,0.773,0,1.109L52,38.303V39h-2  c0-0.188-0.022-0.37-0.055-0.548C49.933,38.392,49.916,38.334,49.901,38.274z M29.555,24.168L24,20.465V14.48l3-2.4V17  c0,0.379,0.214,0.725,0.553,0.895l4,2c0.281,0.141,0.613,0.141,0.895,0l4-2C36.786,17.725,37,17.379,37,17v-4.919l3,2.4v5.984  l-5.555,3.703C34.167,24.354,34,24.666,34,25v14h-4V25C30,24.666,29.833,24.354,29.555,24.168z M15.707,32.293l-1.584-1.584  L15.754,25h2.492l1.631,5.709l-1.584,1.584C18.105,32.48,18,32.735,18,33v6h-2v-6C16,32.735,15.895,32.48,15.707,32.293z M43.829,60  H20.171c0.413-1.164,1.525-2,2.829-2h2h14h2C42.304,58,43.416,58.836,43.829,60z M37.719,56H26.281l1.5-6h8.438L37.719,56z M60,45  c0,1.654-1.346,3-3,3H37H27H7c-1.654,0-3-1.346-3-3v-4h56V45z" style="fill:#343535;"/><rect height="2" style="fill:#343535;" width="2" x="15" y="6"/><rect height="2" style="fill:#343535;" width="2" x="11" y="6"/><rect height="2" style="fill:#343535;" width="2" x="7" y="6"/></svg>